<mxfile host="app.diagrams.net" modified="2020-12-17T02:44:17.023Z" agent="5.0 (X11)" etag="IXwEc7o6oiFOgr-piwTg" version="14.0.4" type="github">
  <diagram name="Page-1" id="c7558073-3199-34d8-9f00-42111426c3f3">
    <mxGraphModel dx="2248" dy="1860" grid="1" gridSize="10" guides="1" tooltips="1" connect="1" arrows="1" fold="1" page="1" pageScale="1" pageWidth="826" pageHeight="1169" background="#ffffff" math="0" shadow="0">
      <root>
        <object label="" id="0">
          <mxCell />
        </object>
        <mxCell id="1" parent="0" />
        <mxCell id="2" value="&lt;p style=&quot;margin: 0px ; margin-top: 4px ; text-align: center ; text-decoration: underline&quot;&gt;&lt;font color=&quot;#FF7236&quot;&gt;&lt;strong&gt;&lt;br&gt;&lt;/strong&gt;&lt;/font&gt;&lt;/p&gt;&lt;hr&gt;&lt;div&gt;projeto: x.fflch.usp.br&lt;/div&gt;&lt;div&gt;&lt;br&gt;&lt;/div&gt;&lt;div&gt;Repositório principal: https://github.com/fflch/x&lt;/div&gt;&lt;div&gt;&lt;br&gt;&lt;/div&gt;&lt;div&gt;Branch de produção: main (antiga master)&lt;br&gt;&lt;/div&gt;" style="verticalAlign=middle;align=center;overflow=fill;fontSize=12;fontFamily=Helvetica;html=1;rounded=1;fontStyle=1;strokeWidth=3;fillColor=#E6FFCC" parent="1" vertex="1">
          <mxGeometry x="-160" y="390" width="380" height="120" as="geometry" />
        </mxCell>
        <mxCell id="12" value="Produção" style="whiteSpace=wrap;align=center;verticalAlign=middle;fontStyle=1;strokeWidth=3;fillColor=#FFFFCC;fontSize=27;" parent="1" vertex="1">
          <mxGeometry x="40" y="170" width="590" height="130.5" as="geometry" />
        </mxCell>
        <mxCell id="9xpo9mfSn-zfOwuB2nQG-107" value="&lt;b&gt;&lt;font style=&quot;font-size: 14px&quot;&gt;Internet&lt;/font&gt;&lt;/b&gt;" style="text;html=1;strokeColor=none;fillColor=none;align=center;verticalAlign=middle;whiteSpace=wrap;rounded=0;" parent="1" vertex="1">
          <mxGeometry x="380" y="20" width="74" height="40" as="geometry" />
        </mxCell>
        <mxCell id="9xpo9mfSn-zfOwuB2nQG-112" value="" style="pointerEvents=1;shadow=0;dashed=0;html=1;strokeColor=none;fillColor=#505050;labelPosition=center;verticalLabelPosition=bottom;verticalAlign=top;outlineConnect=0;align=center;shape=mxgraph.office.servers.mainframe_host;" parent="1" vertex="1">
          <mxGeometry x="313" y="179" width="44" height="42" as="geometry" />
        </mxCell>
        <mxCell id="9xpo9mfSn-zfOwuB2nQG-115" value="" style="aspect=fixed;perimeter=ellipsePerimeter;html=1;align=center;shadow=0;dashed=0;spacingTop=3;image;image=img/lib/active_directory/internet_globe.svg;" parent="1" vertex="1">
          <mxGeometry x="290" width="80" height="80" as="geometry" />
        </mxCell>
        <mxCell id="9xpo9mfSn-zfOwuB2nQG-116" style="edgeStyle=orthogonalEdgeStyle;rounded=0;orthogonalLoop=1;jettySize=auto;html=1;" parent="1" edge="1" source="9xpo9mfSn-zfOwuB2nQG-115">
          <mxGeometry relative="1" as="geometry">
            <mxPoint x="360" y="40" as="sourcePoint" />
            <Array as="points">
              <mxPoint x="330" y="160" />
            </Array>
            <mxPoint x="330" y="160" as="targetPoint" />
          </mxGeometry>
        </mxCell>
        <mxCell id="9xpo9mfSn-zfOwuB2nQG-122" value="" style="fontColor=#0066CC;verticalAlign=top;verticalLabelPosition=bottom;labelPosition=center;align=center;html=1;outlineConnect=0;fillColor=#CCCCCC;strokeColor=#6881B3;gradientColor=none;gradientDirection=north;strokeWidth=2;shape=mxgraph.networks.desktop_pc;" parent="1" vertex="1">
          <mxGeometry x="480" y="187" width="60" height="84" as="geometry" />
        </mxCell>
        <mxCell id="9xpo9mfSn-zfOwuB2nQG-127" value="" style="aspect=fixed;perimeter=ellipsePerimeter;html=1;align=center;shadow=0;dashed=0;spacingTop=3;image;image=img/lib/active_directory/database_partition_2.svg;fontSize=27;" parent="1" vertex="1">
          <mxGeometry x="160" y="192.36" width="86" height="63.64" as="geometry" />
        </mxCell>
        <mxCell id="9xpo9mfSn-zfOwuB2nQG-130" value="" style="shape=image;html=1;verticalAlign=top;verticalLabelPosition=bottom;labelBackgroundColor=#ffffff;imageAspect=0;aspect=fixed;image=https://cdn1.iconfinder.com/data/icons/picons-social/57/github-128.png;fontSize=27;" parent="1" vertex="1">
          <mxGeometry x="262" y="570" width="128" height="128" as="geometry" />
        </mxCell>
        <mxCell id="9xpo9mfSn-zfOwuB2nQG-136" value="" style="aspect=fixed;perimeter=ellipsePerimeter;html=1;align=center;shadow=0;dashed=0;spacingTop=3;image;image=img/lib/active_directory/sql_server.svg;fontSize=27;" parent="1" vertex="1">
          <mxGeometry x="70" y="179" width="77" height="100" as="geometry" />
        </mxCell>
        <mxCell id="9xpo9mfSn-zfOwuB2nQG-140" value="" style="shape=mxgraph.cisco.people.androgenous_person;html=1;pointerEvents=1;dashed=0;fillColor=#036897;strokeColor=#ffffff;strokeWidth=2;verticalLabelPosition=bottom;verticalAlign=top;align=center;outlineConnect=0;fontSize=27;" parent="1" vertex="1">
          <mxGeometry x="301" y="1030" width="69" height="82" as="geometry" />
        </mxCell>
        <mxCell id="9xpo9mfSn-zfOwuB2nQG-141" value="" style="shape=mxgraph.cisco.people.androgenous_person;html=1;pointerEvents=1;dashed=0;fillColor=#036897;strokeColor=#ffffff;strokeWidth=2;verticalLabelPosition=bottom;verticalAlign=top;align=center;outlineConnect=0;fontSize=27;" parent="1" vertex="1">
          <mxGeometry x="-80" y="1020" width="69" height="82" as="geometry" />
        </mxCell>
        <mxCell id="qFaGFEgelZCk0UNJaegD-22" value="" style="verticalLabelPosition=bottom;html=1;fillColor=#282828;strokeColor=none;verticalAlign=top;pointerEvents=1;align=center;shape=mxgraph.cisco_safe.people_places_things_icons.icon1;" vertex="1" parent="1">
          <mxGeometry x="273.5" y="380" width="96.5" height="112" as="geometry" />
        </mxCell>
        <mxCell id="qFaGFEgelZCk0UNJaegD-23" value="&lt;font style=&quot;font-size: 24px&quot;&gt;Augusto, Ricardo e Thiago&lt;br&gt;&lt;/font&gt;" style="text;html=1;strokeColor=none;fillColor=none;align=center;verticalAlign=middle;whiteSpace=wrap;rounded=0;" vertex="1" parent="1">
          <mxGeometry x="370" y="406" width="350" height="60" as="geometry" />
        </mxCell>
        <mxCell id="qFaGFEgelZCk0UNJaegD-24" value="" style="shape=singleArrow;direction=south;whiteSpace=wrap;html=1;arrowWidth=0.3;arrowSize=0.2909090909090909;rotation=-180;" vertex="1" parent="1">
          <mxGeometry x="291.75" y="310" width="60" height="60" as="geometry" />
        </mxCell>
        <mxCell id="qFaGFEgelZCk0UNJaegD-25" value="" style="shape=singleArrow;direction=south;whiteSpace=wrap;html=1;arrowWidth=0.3;arrowSize=0.2909090909090909;rotation=-180;" vertex="1" parent="1">
          <mxGeometry x="290" y="510" width="60" height="60" as="geometry" />
        </mxCell>
        <mxCell id="qFaGFEgelZCk0UNJaegD-28" value="" style="shape=image;html=1;verticalAlign=top;verticalLabelPosition=bottom;labelBackgroundColor=#ffffff;imageAspect=0;aspect=fixed;image=https://cdn3.iconfinder.com/data/icons/social-media-2169/24/social_media_social_media_logo_github_2-128.png" vertex="1" parent="1">
          <mxGeometry x="530" y="820" width="88" height="88" as="geometry" />
        </mxCell>
        <mxCell id="qFaGFEgelZCk0UNJaegD-29" value="" style="shape=image;html=1;verticalAlign=top;verticalLabelPosition=bottom;labelBackgroundColor=#ffffff;imageAspect=0;aspect=fixed;image=https://cdn3.iconfinder.com/data/icons/social-media-2169/24/social_media_social_media_logo_github_2-128.png" vertex="1" parent="1">
          <mxGeometry x="291" y="820" width="88" height="88" as="geometry" />
        </mxCell>
        <mxCell id="qFaGFEgelZCk0UNJaegD-30" value="" style="shape=image;html=1;verticalAlign=top;verticalLabelPosition=bottom;labelBackgroundColor=#ffffff;imageAspect=0;aspect=fixed;image=https://cdn3.iconfinder.com/data/icons/social-media-2169/24/social_media_social_media_logo_github_2-128.png" vertex="1" parent="1">
          <mxGeometry x="40" y="820" width="88" height="88" as="geometry" />
        </mxCell>
        <mxCell id="qFaGFEgelZCk0UNJaegD-32" value="" style="shape=flexArrow;endArrow=classic;startArrow=classic;html=1;width=14;endSize=7.03;" edge="1" parent="1" target="9xpo9mfSn-zfOwuB2nQG-130">
          <mxGeometry width="50" height="50" relative="1" as="geometry">
            <mxPoint x="100" y="810" as="sourcePoint" />
            <mxPoint x="197" y="740" as="targetPoint" />
          </mxGeometry>
        </mxCell>
        <mxCell id="qFaGFEgelZCk0UNJaegD-33" value="" style="shape=flexArrow;endArrow=classic;startArrow=classic;html=1;" edge="1" parent="1">
          <mxGeometry width="50" height="50" relative="1" as="geometry">
            <mxPoint x="329.5" y="820" as="sourcePoint" />
            <mxPoint x="329.5" y="708" as="targetPoint" />
          </mxGeometry>
        </mxCell>
        <mxCell id="qFaGFEgelZCk0UNJaegD-34" value="" style="shape=flexArrow;endArrow=classic;startArrow=classic;html=1;" edge="1" parent="1" target="9xpo9mfSn-zfOwuB2nQG-130">
          <mxGeometry width="50" height="50" relative="1" as="geometry">
            <mxPoint x="560" y="808" as="sourcePoint" />
            <mxPoint x="400" y="698" as="targetPoint" />
          </mxGeometry>
        </mxCell>
        <mxCell id="qFaGFEgelZCk0UNJaegD-36" value="&lt;div&gt;&lt;b&gt;&lt;font style=&quot;font-size: 24px&quot;&gt;Fork&lt;/font&gt;&lt;/b&gt;&lt;/div&gt;" style="text;html=1;strokeColor=none;fillColor=none;align=center;verticalAlign=middle;whiteSpace=wrap;rounded=0;" vertex="1" parent="1">
          <mxGeometry x="30" y="720" width="190" height="20" as="geometry" />
        </mxCell>
        <mxCell id="qFaGFEgelZCk0UNJaegD-38" value="&lt;b&gt;&lt;font style=&quot;font-size: 24px&quot;&gt;Fork&lt;/font&gt;&lt;/b&gt;" style="text;html=1;strokeColor=none;fillColor=none;align=center;verticalAlign=middle;whiteSpace=wrap;rounded=0;" vertex="1" parent="1">
          <mxGeometry x="510" y="720" width="40" height="20" as="geometry" />
        </mxCell>
        <mxCell id="qFaGFEgelZCk0UNJaegD-39" value="&lt;b&gt;&lt;font style=&quot;font-size: 24px&quot;&gt;Fork&lt;/font&gt;&lt;/b&gt;" style="text;html=1;strokeColor=none;fillColor=none;align=center;verticalAlign=middle;whiteSpace=wrap;rounded=0;" vertex="1" parent="1">
          <mxGeometry x="356.25" y="740" width="40" height="20" as="geometry" />
        </mxCell>
        <mxCell id="qFaGFEgelZCk0UNJaegD-41" value="" style="shape=mxgraph.cisco.people.androgenous_person;html=1;pointerEvents=1;dashed=0;fillColor=#036897;strokeColor=#ffffff;strokeWidth=2;verticalLabelPosition=bottom;verticalAlign=top;align=center;outlineConnect=0;fontSize=27;" vertex="1" parent="1">
          <mxGeometry x="600" y="1020" width="69" height="82" as="geometry" />
        </mxCell>
        <mxCell id="qFaGFEgelZCk0UNJaegD-42" value="" style="endArrow=classic;html=1;entryX=0.89;entryY=0.24;entryDx=0;entryDy=0;entryPerimeter=0;" edge="1" parent="1" target="9xpo9mfSn-zfOwuB2nQG-141">
          <mxGeometry width="50" height="50" relative="1" as="geometry">
            <mxPoint x="80" y="910" as="sourcePoint" />
            <mxPoint x="-30" y="1010" as="targetPoint" />
          </mxGeometry>
        </mxCell>
        <mxCell id="qFaGFEgelZCk0UNJaegD-44" value="" style="endArrow=classic;html=1;" edge="1" parent="1" target="9xpo9mfSn-zfOwuB2nQG-140">
          <mxGeometry width="50" height="50" relative="1" as="geometry">
            <mxPoint x="335" y="910" as="sourcePoint" />
            <mxPoint x="335" y="1020" as="targetPoint" />
          </mxGeometry>
        </mxCell>
        <mxCell id="qFaGFEgelZCk0UNJaegD-45" value="" style="endArrow=classic;html=1;" edge="1" parent="1" target="qFaGFEgelZCk0UNJaegD-41">
          <mxGeometry width="50" height="50" relative="1" as="geometry">
            <mxPoint x="579" y="910" as="sourcePoint" />
            <mxPoint x="649" y="1030" as="targetPoint" />
            <Array as="points">
              <mxPoint x="639" y="1020" />
            </Array>
          </mxGeometry>
        </mxCell>
        <mxCell id="qFaGFEgelZCk0UNJaegD-48" value="" style="shape=image;html=1;verticalAlign=top;verticalLabelPosition=bottom;labelBackgroundColor=#ffffff;imageAspect=0;aspect=fixed;image=https://cdn2.iconfinder.com/data/icons/app-types-in-grey/128/app_type_festival_512px_GREY.png" vertex="1" parent="1">
          <mxGeometry x="290" y="1410" width="128" height="128" as="geometry" />
        </mxCell>
        <mxCell id="qFaGFEgelZCk0UNJaegD-50" value="" style="edgeStyle=elbowEdgeStyle;elbow=horizontal;endArrow=classic;html=1;" edge="1" parent="1" source="9xpo9mfSn-zfOwuB2nQG-141" target="9xpo9mfSn-zfOwuB2nQG-130">
          <mxGeometry width="50" height="50" relative="1" as="geometry">
            <mxPoint x="-350" y="890" as="sourcePoint" />
            <mxPoint x="-300" y="840" as="targetPoint" />
            <Array as="points">
              <mxPoint x="-200" y="800" />
            </Array>
          </mxGeometry>
        </mxCell>
        <mxCell id="qFaGFEgelZCk0UNJaegD-52" value="" style="edgeStyle=elbowEdgeStyle;elbow=horizontal;endArrow=classic;html=1;" edge="1" parent="1" target="9xpo9mfSn-zfOwuB2nQG-130">
          <mxGeometry width="50" height="50" relative="1" as="geometry">
            <mxPoint x="669" y="1080" as="sourcePoint" />
            <mxPoint x="719" y="1030" as="targetPoint" />
            <Array as="points">
              <mxPoint x="790" y="830" />
            </Array>
          </mxGeometry>
        </mxCell>
        <mxCell id="qFaGFEgelZCk0UNJaegD-53" style="edgeStyle=orthogonalEdgeStyle;rounded=0;orthogonalLoop=1;jettySize=auto;html=1;exitX=0.5;exitY=1;exitDx=0;exitDy=0;" edge="1" parent="1" source="qFaGFEgelZCk0UNJaegD-36" target="qFaGFEgelZCk0UNJaegD-36">
          <mxGeometry relative="1" as="geometry" />
        </mxCell>
        <mxCell id="qFaGFEgelZCk0UNJaegD-54" value="&lt;font style=&quot;font-size: 24px&quot; color=&quot;#3333FF&quot;&gt;Upstream&lt;/font&gt;" style="text;html=1;strokeColor=none;fillColor=none;align=center;verticalAlign=middle;whiteSpace=wrap;rounded=0;" vertex="1" parent="1">
          <mxGeometry x="356.25" y="560" width="137" height="50" as="geometry" />
        </mxCell>
        <mxCell id="qFaGFEgelZCk0UNJaegD-55" value="" style="edgeStyle=elbowEdgeStyle;elbow=horizontal;endArrow=classic;html=1;" edge="1" parent="1" source="9xpo9mfSn-zfOwuB2nQG-140" target="9xpo9mfSn-zfOwuB2nQG-130">
          <mxGeometry width="50" height="50" relative="1" as="geometry">
            <mxPoint x="160" y="860" as="sourcePoint" />
            <mxPoint x="210" y="810" as="targetPoint" />
            <Array as="points">
              <mxPoint x="420" y="860" />
              <mxPoint x="270" y="864" />
            </Array>
          </mxGeometry>
        </mxCell>
        <mxCell id="qFaGFEgelZCk0UNJaegD-60" value="Actor" style="shape=umlActor;verticalLabelPosition=bottom;verticalAlign=top;html=1;outlineConnect=0;fontSize=1;" vertex="1" parent="1">
          <mxGeometry x="-190" y="1430" width="110" height="200" as="geometry" />
        </mxCell>
        <mxCell id="qFaGFEgelZCk0UNJaegD-65" value="Text" style="text;html=1;strokeColor=none;fillColor=none;align=center;verticalAlign=middle;whiteSpace=wrap;rounded=0;fontSize=1;" vertex="1" parent="1">
          <mxGeometry x="160" y="1550" width="40" height="20" as="geometry" />
        </mxCell>
        <mxCell id="qFaGFEgelZCk0UNJaegD-66" value="Text" style="text;html=1;strokeColor=none;fillColor=none;align=center;verticalAlign=middle;whiteSpace=wrap;rounded=0;fontSize=1;" vertex="1" parent="1">
          <mxGeometry x="128" y="1600" width="40" height="20" as="geometry" />
        </mxCell>
        <mxCell id="qFaGFEgelZCk0UNJaegD-67" value="&lt;div&gt;Gabriela&lt;/div&gt;&lt;div&gt;&lt;br&gt;&lt;/div&gt;" style="text;html=1;strokeColor=none;fillColor=none;align=center;verticalAlign=middle;whiteSpace=wrap;rounded=0;fontSize=24;" vertex="1" parent="1">
          <mxGeometry x="-450" y="1470" width="310" height="80" as="geometry" />
        </mxCell>
        <mxCell id="qFaGFEgelZCk0UNJaegD-69" value="" style="shape=image;html=1;verticalAlign=top;verticalLabelPosition=bottom;labelBackgroundColor=#ffffff;imageAspect=0;aspect=fixed;image=https://cdn3.iconfinder.com/data/icons/file-set-volume-1/512/Artboard_6-128.png;fontSize=24;" vertex="1" parent="1">
          <mxGeometry x="44.5" y="1430" width="128" height="128" as="geometry" />
        </mxCell>
        <mxCell id="qFaGFEgelZCk0UNJaegD-70" value="" style="shape=image;html=1;verticalAlign=top;verticalLabelPosition=bottom;labelBackgroundColor=#ffffff;imageAspect=0;aspect=fixed;image=https://cdn4.iconfinder.com/data/icons/logos-and-brands/512/141_Git_logo_logos-128.png;fontSize=24;" vertex="1" parent="1">
          <mxGeometry x="560" y="1430" width="128" height="128" as="geometry" />
        </mxCell>
        <mxCell id="qFaGFEgelZCk0UNJaegD-72" value="" style="shape=flexArrow;endArrow=classic;html=1;fontSize=24;" edge="1" parent="1">
          <mxGeometry width="50" height="50" relative="1" as="geometry">
            <mxPoint x="183.5" y="1509.5" as="sourcePoint" />
            <mxPoint x="273.5" y="1509.5" as="targetPoint" />
          </mxGeometry>
        </mxCell>
        <mxCell id="qFaGFEgelZCk0UNJaegD-73" value="" style="shape=flexArrow;endArrow=classic;html=1;fontSize=24;" edge="1" parent="1">
          <mxGeometry width="50" height="50" relative="1" as="geometry">
            <mxPoint x="-60" y="1520" as="sourcePoint" />
            <mxPoint x="30" y="1520" as="targetPoint" />
          </mxGeometry>
        </mxCell>
        <mxCell id="qFaGFEgelZCk0UNJaegD-74" value="" style="shape=flexArrow;endArrow=classic;html=1;fontSize=24;" edge="1" parent="1">
          <mxGeometry width="50" height="50" relative="1" as="geometry">
            <mxPoint x="454" y="1520" as="sourcePoint" />
            <mxPoint x="544" y="1520" as="targetPoint" />
          </mxGeometry>
        </mxCell>
        <mxCell id="qFaGFEgelZCk0UNJaegD-77" value="" style="ellipse;whiteSpace=wrap;html=1;fontSize=24;labelBackgroundColor=#ffffff;textOpacity=2;align=center;fillColor=none;" vertex="1" parent="1">
          <mxGeometry x="-400" y="1169" width="1190" height="580" as="geometry" />
        </mxCell>
        <mxCell id="qFaGFEgelZCk0UNJaegD-79" value="" style="endArrow=classic;html=1;fontSize=24;fontColor=#000000;entryX=0.396;entryY=0.009;entryDx=0;entryDy=0;entryPerimeter=0;exitX=1;exitY=1;exitDx=0;exitDy=0;exitPerimeter=0;" edge="1" parent="1" source="9xpo9mfSn-zfOwuB2nQG-141" target="qFaGFEgelZCk0UNJaegD-77">
          <mxGeometry width="50" height="50" relative="1" as="geometry">
            <mxPoint x="10" y="1112" as="sourcePoint" />
            <mxPoint x="60" y="1062" as="targetPoint" />
          </mxGeometry>
        </mxCell>
        <mxCell id="qFaGFEgelZCk0UNJaegD-80" value="Stage" style="text;html=1;strokeColor=none;fillColor=none;align=center;verticalAlign=middle;whiteSpace=wrap;rounded=0;labelBackgroundColor=#ffffff;fontSize=24;fontColor=#000000;" vertex="1" parent="1">
          <mxGeometry x="339" y="1350" width="40" height="20" as="geometry" />
        </mxCell>
        <mxCell id="qFaGFEgelZCk0UNJaegD-82" value="&lt;div&gt;filesystem&lt;/div&gt;" style="text;html=1;strokeColor=none;fillColor=none;align=center;verticalAlign=middle;whiteSpace=wrap;rounded=0;labelBackgroundColor=#ffffff;fontSize=24;fontColor=#000000;" vertex="1" parent="1">
          <mxGeometry x="80" y="1370" width="40" height="20" as="geometry" />
        </mxCell>
        <mxCell id="qFaGFEgelZCk0UNJaegD-83" value="&lt;div&gt;Linha do Tempo&lt;/div&gt;&lt;div&gt;&lt;br&gt;&lt;/div&gt;" style="text;html=1;strokeColor=none;fillColor=none;align=center;verticalAlign=middle;whiteSpace=wrap;rounded=0;labelBackgroundColor=#ffffff;fontSize=24;fontColor=#000000;" vertex="1" parent="1">
          <mxGeometry x="514" y="1370" width="220" height="20" as="geometry" />
        </mxCell>
        <mxCell id="qFaGFEgelZCk0UNJaegD-88" value="&lt;font color=&quot;#FF3399&quot;&gt;Escopo 0&lt;br&gt;&lt;/font&gt;" style="text;html=1;strokeColor=none;fillColor=none;align=center;verticalAlign=middle;whiteSpace=wrap;rounded=0;labelBackgroundColor=#ffffff;fontSize=24;fontColor=#000000;" vertex="1" parent="1">
          <mxGeometry x="-650" y="1390" width="360" height="110" as="geometry" />
        </mxCell>
        <mxCell id="qFaGFEgelZCk0UNJaegD-89" value="&lt;font color=&quot;#FF3399&quot;&gt;Escopo 1&lt;br&gt;&lt;/font&gt;" style="text;html=1;strokeColor=none;fillColor=none;align=center;verticalAlign=middle;whiteSpace=wrap;rounded=0;labelBackgroundColor=#ffffff;fontSize=24;fontColor=#000000;" vertex="1" parent="1">
          <mxGeometry x="-640" y="1016" width="360" height="110" as="geometry" />
        </mxCell>
        <mxCell id="qFaGFEgelZCk0UNJaegD-90" value="&lt;font color=&quot;#FF3399&quot;&gt;Escopo 2&lt;br&gt;&lt;/font&gt;" style="text;html=1;strokeColor=none;fillColor=none;align=center;verticalAlign=middle;whiteSpace=wrap;rounded=0;labelBackgroundColor=#ffffff;fontSize=24;fontColor=#000000;" vertex="1" parent="1">
          <mxGeometry x="-640" y="588" width="360" height="110" as="geometry" />
        </mxCell>
        <mxCell id="qFaGFEgelZCk0UNJaegD-91" value="&lt;font color=&quot;#FF3399&quot;&gt;Escopo 3&lt;br&gt;&lt;/font&gt;" style="text;html=1;strokeColor=none;fillColor=none;align=center;verticalAlign=middle;whiteSpace=wrap;rounded=0;labelBackgroundColor=#ffffff;fontSize=24;fontColor=#000000;" vertex="1" parent="1">
          <mxGeometry x="-652.03" y="240" width="360" height="110" as="geometry" />
        </mxCell>
        <mxCell id="qFaGFEgelZCk0UNJaegD-94" value="" style="shape=image;verticalLabelPosition=bottom;labelBackgroundColor=#ffffff;verticalAlign=top;aspect=fixed;imageAspect=0;image=data:image/png,iVBORw0KGgoAAAANSUhEUgAAAToAAAChCAMAAABgSoNaAAABelBMVEX///8AsgAAAAAAgf//jwBdXV3Y2Nj/iAAAtQAAuAAAg///hwD/iwAAhv8AtABnZ2cArgAAev+lpaXq6uo5OTnExMQAe//R0dEAdv+enp6RkZG9vb3i4uL/gwD09PQAf/+Ghob/+/Nvb296enoAfwD/4cf/uHP/rl0vLy9UVFQWFhYAdQD1+/8+Pj6wsLDV1dUAIQAAOwAAnAAAVwAApwAAlACTv/9JnP8AaM5KSkojIyMASAAAjAAAHQAAXwDz+/N2znb/vYH/x5X/nkL/nSqz0v8AV6wAEiQaGhoALgAAJwAAaAAAFwDn+OfV8NVIKAD/w47/3Lz/8eTR5P/n8/90sP++2v/Y6f89lf9hpf9Alv8AYb8ARYgAUJ4AHz0AMF8Acd8AOnMACgCR1pEuvC5Gvka+5r5dx104HwC8aQB0QQD/qmBxrP+gxP+y0/8ACxej3aN80Hyz4LOI0ojK68qYVQDIcADnggAlFQBfNQDYeQD/0af/qk3/37/IMvaZAAASoklEQVR4nO1di18S2RcfLqODMOAggoCAgIJAPrJMRW19gGm1uoqP1LayFG3XLHPb+u3C/u+/cwbFedyBAU1B5/v5xChzvOfe75zHfU4MY+DOY3P81W1X4Zaw7RmHz3HPtrbIZ6d3nWHsPc4N+HSOyW8OePHmvcQ6Nn29Yvs3PM4FZsNrFj+VgveYOmbHs8vsOncYZmtzZwzsav1kgWEWTtaZrbHPJzsiLdueTWbB2dOzw2x5exjm1ebOJjjpxsnYq51NBqnbWjgZuO123AI2nM4xJ/jiphfgfMWMITt27xiz67V7vVsoMubcZj45Nz125sS7wyygoHcBaTR7d4G6V2CLY9XU3ElsejyeMfBZz+cNDHljTnsppI33OD+hGaJTexird8Pu3djxngw4PWMDm56egS1nj/3kM+N1rm+j0d5HDJh7zAPA2C5w5PRKqPN8Kks4t+DbT96Fbe/GltNZinBbTs8G/tSzWynH3G3seMBoNp2QaV95vQMiddtI3WUyHffgLwvecasdgx58g9R5ewbOqbPfx0iH2EF/W/CaN5gxjxX+mTc27B6kbvNC4sTT41zHJNvzCendgv6Kc+OCOue63fmpUvl3GDteDFV2CF1O72eI/maPtwetzlum7pW3x8tgpoXsAN97QHATBD0idd5X65g17iU2d5GjgU893m1MqJte++ft7QX4+qQsMj6OIie7u5g2xuxeO9xa3x1H6rZ3ISuLPxowYMCAAQMGDBgwYOC+IOBr75xMJP3uSkKhod7BRGIwPBSqIOTyJZcISSV6KxZ1Z+AeJGX4tIRc7ZdCvVrkBVouhVJDP6m6jYMQNvf9s4m9ide/Y5O7qFJ+uPP2zcTe3sSbt/BjB1XIB3fePdszW/cmsKh0JfO8A3BBG9+Y7VaE3f76C52WJHCyVxKy2vfeEdJOEQK7fGdFITMIWZ9BwYGfXfvbRIiQReDEfA6r9T0hak9LE/JaImR/RuMuKhOCpwHm6bqJNtwSOsmi+bK52GJwtVaFUJiQPbtMaEIdFYcImZAJWYG7xE214+YBIcwqYw5oea9s8LCSFBB6pvRGMN9nCiGr+Yt22ml2QHtfK5gDY/micNk0ea8gBbh7R6IyoTB5qxKyvibkrqYKH6W9aFGdUqFWtWUCK3uKQAaWqRIy299q5OLmx6Da6NDs5M7opxidaHZSVtxkkSIEaTZ50226GYC/mtXUIStSj6Xyi6xIk6yf/E6jDmzzpht1MwiQtxRSzNY3JCyRSpE9GnV7Mrdup/JrhkRxt4Jdl699sBOQIO8opoIGlRLvlwCmSRMCg7qUGUzRQp0Y7BKd6aiPPkRpNrRGL8eZmtTJoUWdDHTqFsvj3qYfWbhgSEWSPnfABXBrOOwzEg25LhCgJViRusmyjAsGwloO2+oKuP0wHCHtze26HTg5Um6CVpp4L0ueCapBQZ+tRSJULU2EcP6g+2Ya+VMAA/Sw9PdJOiuLsumTXiorwK9fIlS9cxKKKpQ3FdqVU0phWpfNOkFSUiE3+ULv/MmGutRgB6NYSTenGyLeT2zdz0RUNZMBcUzd8YCs6JdJpVSjU3GWYFAmpGcgBuMSecnNgiHK/Fm7usE4sg8p/1CZKDCIyafQacN/q3J+ZVhrJrWxEVI2FuEi4LLySacJ9YRdGjKxTMhqXlRN2A3hdJ1c6K18MMyIaeo623RD6FVMdZTgBu4ktFjt4GMqOWD9rVVCi31vkUyquhpRtDvJVOcebaoz3YQu69KY/wFjeStOnZvFafHfiazPcfnH0G8rC4FLq5krTbCXZ+HN9An2QBOanU8ru3XhoOL1Hi5PiIsxYZqQaxBXdfaQlL03MEJIUh/D+bLOHi7rfNFY1mmhzN83OCZV0+YXCPWKI6XFL/iZHtaQ6igJLVZcJwxIVhwn6UJukq616rcMVyVHcfmSYmsTvVrEIYZKvKTaKw0KXL6WJXwCvZqZtOkmjrur9UZh0Fq9FF1CVZDUNP8Gha9hFljCzRbs/JRO3e2gcR6iTjQOdUMGdfWi26CuXhjU1Q2DurphUFc3DOrqhkFd3TCoqxsGdXXDoK5uGNTVDYO6umFQVzeajrqwQV29iDbM2nF3sy0nDjbMyRk39aTPjSIUcHcP614hqWX5MzTc7Q5UKxnUu1vrWaBxVTiH4ur29Ub9Q/U8ZV2VFgU7zk8TJsK69LQqNtdoIxBOlEpOd2hXJOS7UO+vfZ1nSev4U3f6YiEyUWM41FXpEnCfH3k4MvIcr1EdXPt1BpiQuGD4fGTkKV61GlCzehl66WcpAvg0Rn7p63s5RWrbxhiKnlf6YaVKi3B1gmDfqKOtzSJMo57qGSClL9S5obCpacHS1uYY7XtByCCNFlcC1Qu1qJehS7WJB9ENBb0chTJBuanvYQ3bGLuklYan2an9LAMgOt1mcZgADkvboxe0LUxydOg7+TEEnDy6LLmPkJS6Gi61+ho3uiYo9QXVU0KbWCgWa3lJ2TVER7eq0prnIUOEvBi1mMqwWKbUZwlVf1JpWf8C8PgeX9Qe0Tb6kEzS1Au1qVeimywpv2pVqHa0TVdxvUqVXtKwuxbyVJCIopqpKvmzRdcTDGElpAWbLMIHVU8iSZ6aVOpT1AI1kVZtRVgiU3LVJjQfPUEGrLVNXh/hV43uD4SjRxa5FoflacXI4Ne3zaOXvJBXArh7pIxk4B6jCiGH49cae7ku5VFvH/lgUZRqgieiI8qEyUPlX2KlqRFskLxUPB8QflKJHL8+h3KpnwnU/xdF/RPkgVr9dK1bcNyKnaOE9KlUO0Z1mB14yhN1pV9Sd1NBjhCUzweEn2sfnozqDOM+MqIiRay/NOhCTDJR1de4j6RDlkEhXqlVo9lVNeYOaqUFKuk+VVAQn/sDLePuWtLbeUhTnjzUf0TGil8ZDi/UU7aCVgQ4fmfZF/zkF1qp09RejAxJeqWnaJbUTpV1PKInCndaawOmCiF1EDtnRZpi6FUF9TUmCnAf6Jy2dFUsdbT66DGlVWlKokiQRxRZUxtExlYpht3dvpbSsbZWXXBTXREfffqyhECCPKEIYSOH9amRICruc+yAoeckvVTTB0Wjaqm0mrpJTequjIe0gh1PFFK0p+ww/XpF3fRG6Sj1A406qDTF1bWpS7ZcCUl6LSB5L0mkUlT1GJfL5XSKTRqM1qA7RUmT8lJFRCdLRVetNFBHme1IkmkNLdXCQhWEqKnbZOmThY00Xb0sKoW628ETa3ldgkYAV8Y63C4e7pKFbs1KU9JWmNKtE537yi9jSVAffdtjWQ+hV0u9PLa4emt6o5OPnrf7ZKVCv0g9NOukPkrojYbVWtzkKa0L9Pjq5yV7aT0EHClI+zbdMOKoyq/Y0BRJ6Z7KA1YclN7iiJQqN/VhhOmkP6UOJwiFZ/TXK28L76IZPzx5ebeD1nun9/vTNQwxqGOUR9LeeBd9Fope6Wl6+PKrB2341PVOAldAp9rs0OjkThKmmB2op3XIk/orRRsZW55LJglcWsdB02qzwyE9XZioWogTNNdwFqEL5+FUpCj7uhT1WnMcCf1RJE1eKFwW4pXEatNacz/D1Epr5Exw+peyGQ5k7lrW5yC2P5FWwwHjaNUoDtQ/0Kk+oP8FdpDfR0wWqepfpNMfQ+p5wwuEaZXWmvr1EfLYVHZaS9sD6mHCepAkpK/NUq6DaYr2LjtU75Cr11od9OtfNwSaf31yMdfraBsdkc1LpSqMw1tklbaYHmu90xHRAWr6TG0WQJtj+rnuqejqgGqMPLGUSjY9+EBjTuROp/pQDe/+CyzhCoOpDWB6BCYnne4Zqjhz146VdpxXuu9DJeYgKmG3eupBX1/fY1y5usaXdeGxzIePoeAHuF6ToE/Ld6Vk6ivMN4VriSTiAcmRqakRaD1JSl09WXnxBQ9NPi1XerLKWkJHojyKC1/rQT9XuFxwQpuTS/UpfyX1rdWnjWS6L4qNyvwzVG2oFJJUWocdtXb0tiR/ysuS3L5osqW3yhK8TvVLNU4fu9xDQ91KzXq2WnSJle5olN0h14DkdewS8t3Z9wdWgv86XkYUbZgNbjcJ33Ucfm3XtYp819BxHfsQ2xtmb+BNwqCubjQCdcvLy3iZOb82CxqAuuVRYXQfrnlBMKlvflu5QtE/FQ1A3YpgMuXhCpcD1c390dkrFP1T0RDUHZiEGeYbXEzMzOnRQf7rDMMc4nV5JW/K7x8Cg/mD2WVm5uvRYT4/c/UKXwsagLpvQv5IOGT+Er6Cw56NCiZByDOHo6a8MPotD7+BN4MvHwiOmWUwTIpT3xIag7ozYZYxCd8E08zM/gxzKgjMLNDHrDAreWH2cPlQAE8+EA6BuoOzs6vX93rQANSdCUczgmlZyAMz4Iyns3nw32+QM/LgqUcCZJBZ4eDoyDEK1AkNlDQagro8mNRX4RSpWzYJs2B1M8zK7IEgnIGrnorUne6fnS0b1CmA1O1DTFtZAcr2hSMGr8sraHGzQN3s8swZGCXIMQZ1CiB1K6MQ36CDt3wK4cwhCH/tj5oOIE0wXwUBXBYMENLFjEGdAt9mIZydnh4yM7OzM8z+wezMaf5s5WvedPQN7n49OIDEAF2Wo30UaKDxRgNQ16y4FupaGuZo4E1i6DreHZ6+0/+nlha6ruMEZ9O9ovJaUPEVobgVrze9lEq0+Cvt+wjUtKx2d5CoEKcka4CkU3sNo6OJ/8OAq8Cv3W48i/jx7+8/fvz7x5+kwk77wXuZYMW9JBqU+An57V/2An8TkqLb57D2Vp07jnaNvRM+Qv5mJfjxUWODyuC9XIVFaOwUcyuYA3ykpoMK+8PuPPzUtqfInwrm2B+0E7CB6uek7zAGKUdnfOR/SuZY9g91XHQ18//Hc3WEUupNxZPkDzV14LKKsBa4tl2XTYoQUR6gbyWEwhyYndw+h+47c4x4ECAqTZ8d6kh3Hu0kHts1eL+99Ry48bKlu8xLL9VfWfZ/5f5JoKOTkKV7nCEucT7oSrcjovRQx7K/kaQoIL67Z+m+9ufU6D4/WShCi7ryxtbw/Rx9acIVEOFq16DuI3GXJO7jLJM++PSkCQM0dNF6xCz7/TqOut11EPKdQt0/zfZCxdtAmPymZu7fGg733F+EaDn2Y9P+H6g3iiG1y/5jJAl9iCrt7h99b4ozIJ6ClPRQvpPm/K9jbwf4xs8/v//A/PDHR82lCQM0tKYvB2ZGt6RGtIbFd/GkWoaMBFEHXC6DNgMGDBgwYMCAgUZAJBbLXbWIEphCtl95K9c/JxdUfEpvFtnYFStys1gN2mxBbv4qRfwXtAUBLBO3qajrD9pWL38rBIM5JgLSESYSDBbkojnO1lTUxYJ8tsgG41cqg8O5Ez7LxDkVdcycTVJ2zsatMTEby/0Hn7zC2HN8c1G3yrPwiS4bmctk5sCHCvG1QqY/lzvOoCnm5jLFiyuaD9xdKxaxiWv9meNS42OcreR7InWFYua4AL/PF8XiisEYlhxfEyVYsG9Qyc8xBS4rltEfw8Lj/2XiEaSuMDdHq2YjomDj+9fE0MNyPM+xESbDsUGOz/JBPriGlgA/zeGV57CxWS4btPF8hJkDc+U4kbsYx8VyuVyJuniQhb+IMNkgy9qywFwB+GKzwYyoLs4VQcEqlBS3zWGwYDkQANPng/1AXS6mcuMGRtHG2fh4BBqVjeRYbpXJ8P25OM8VcmgbRW4OmOGZfq4Id23zTJbP5ArQRnC9HNNvE2MkOCwGuxJ1LAdt/4+ZtwFXbDDG5JhcEFwzUvLFNVs2wrMRPshkbbFcENx3lbehhuJaLMJzMZZrGqMDxOIsf9HkOS4DRjGPdsQwx9AMli/G+202MMk1ZOYYrG4e4rwtV+DYeDwbFFMAthxwbnU2LhvPMcd8Nh7ngyJhYJ2Z8zwU4fgC5JKibY3jI2scW4pwUEAEfwJ7zdweEXVhjucV1Nm4yDl18dX5AvqcmrrVuUJBpEYZ68Dxgbri6mqhIH4fWc3w3DknGT4DiiDQAUkidRGROgy4OZ4vgkXeDgV1YK24BhkBckU/n41EsuiwUuoyXBx7fkyRv3DYc+ogQQJtMbGhYDSFNYBIHX4FbEA4i6DjivdRJFjSt8qDt0M/hOfnGdFh50WHLVHHxbK8Okc3KuLQrbNhqM5xF2kiCNRhz+sY0kPMZhNDPHAJbcY0AXcj2DvrB8dkSw4JUd5W6tcF0fGzWfC/CGvDVIO3I5BQWFuxpA87Q3BhRV8G575IEwz2XIK5XBOlicj8cTZ7jAzk4tks9ibmoB+Ri4OxzccLpW+P18RrBgMb3o30QzBjCv3Z4pyYYUEaAR2O+DxTgPLwNnhptl+McJHV/my23C+OY6lQttjbKxSzYudE/C0Sh78rxOPN47IG7iL+D40znvkTU8q1AAAAAElFTkSuQmCC;" vertex="1" parent="1">
          <mxGeometry x="-575" y="-47.14" width="560" height="287.14" as="geometry" />
        </mxCell>
      </root>
    </mxGraphModel>
  </diagram>
</mxfile>
